<svg width="89" height="180" viewBox="0 0 89 180" fill="none" xmlns="http://www.w3.org/2000/svg">
<path d="M49.2786 2.00001C71.9654 64 120.479 178 49.2786 178C-21.9214 178 -5.03461 142 49.2786 2.00001Z" fill="#316252" stroke="#316252" stroke-width="4" stroke-linejoin="round"/>
<mask id="mask0_0_1" style="mask-type:alpha" maskUnits="userSpaceOnUse" x="0" y="1" width="85" height="176">
<path d="M47.2786 1C69.9654 63 118.479 177 47.2786 177C-23.9214 177 -7.03461 141 47.2786 1Z" fill="#316252"/>
</mask>
<g mask="url(#mask0_0_1)">
<path d="M46.4654 18C45.6654 12.4 38.4654 6.33333 34.9654 4C9.79873 43.6667 -33.4346 128.1 -5.03461 148.5C30.4654 174 48.9654 164 61.9654 144C74.9654 124 55.4654 85 48.9654 77C42.4654 69 47.4654 25 46.4654 18Z" fill="#7CB291"/>
</g>
<mask id="mask1_0_1" style="mask-type:alpha" maskUnits="userSpaceOnUse" x="0" y="1" width="85" height="176">
<path d="M47.2786 1C69.9654 63 118.479 177 47.2786 177C-23.9214 177 -7.03462 141 47.2786 1Z" fill="#316252"/>
</mask>
<g mask="url(#mask1_0_1)">
<path d="M30.4827 71.0623C37.2827 52.2623 35.9827 44.229 34.4827 42.5623C21.6827 40.5623 -8.85064 76.729 -22.5173 95.0623C-11.3506 120.729 14.8827 166.862 30.4827 146.062C46.0827 125.262 36.9827 108.729 30.4827 103.062C27.6494 100.229 23.6827 89.8623 30.4827 71.0623Z" fill="#C6E5A9"/>
</g>
</svg>
